<svg width="240" height="64" viewBox="0 0 240 64" fill="none" xmlns="http://www.w3.org/2000/svg">
<path d="M95.0893 24.4469H98.3388V39.4176H95.0893V37.2616C93.8549 38.9686 92.1097 39.8069 89.8231 39.8069C87.7466 39.8069 86.001 39.0584 84.5265 37.5312C83.0518 36.0043 82.3298 34.1181 82.3298 31.9326C82.3298 29.7165 83.0518 27.8604 84.5265 26.3332C86.001 24.8061 87.7466 24.0578 89.8231 24.0578C92.1097 24.0578 93.8549 24.896 95.0893 26.573V24.4469ZM90.3347 36.723C91.6887 36.723 92.8316 36.2741 93.7351 35.3754C94.6379 34.4473 95.0893 33.3097 95.0893 31.9326C95.0893 30.5549 94.6379 29.4174 93.7351 28.5191C92.8316 27.5909 91.6887 27.1417 90.3347 27.1417C88.9798 27.1417 87.8365 27.5909 86.9337 28.5191C86.0311 29.4174 85.5797 30.5549 85.5797 31.9326C85.5797 33.3097 86.0311 34.4473 86.9337 35.3754C87.8365 36.2741 88.9798 36.723 90.3347 36.723Z" fill="#231F20"/>
<path d="M107.609 30.5252C109.926 31.0343 112.935 31.9925 112.875 35.1961C112.875 36.6331 112.303 37.7707 111.19 38.5794C110.077 39.3876 108.692 39.8069 107.007 39.8069C104.027 39.8069 101.831 38.4894 100.868 36.3034L103.667 34.6869C104.178 36.1242 105.292 36.8425 107.007 36.8425C108.722 36.8425 109.565 36.2741 109.565 35.166C109.565 34.2078 108.301 33.6389 106.706 33.2498C104.449 32.6807 101.409 31.7827 101.47 28.6385C101.47 27.2614 101.981 26.1539 103.035 25.3151C104.088 24.4769 105.412 24.0578 106.977 24.0578C109.474 24.0578 111.491 25.2257 112.544 27.1718L109.805 28.6986C109.294 27.561 108.331 26.9921 106.977 26.9921C105.743 26.9921 104.78 27.5312 104.78 28.5791C104.78 29.5672 106.044 30.0762 107.609 30.5252Z" fill="#231F20"/>
<path d="M123.995 27.5589H120.263V34.7448C120.263 36.6612 121.528 36.6311 123.995 36.5113V39.4156C119.03 40.0146 117.014 38.6673 117.014 34.7448V27.5589H114.245V24.4449H117.014V21.2114L120.263 20.2532V24.4449H123.995V27.5589Z" fill="#231F20"/>
<path d="M138.18 24.4469H141.431V39.4176H138.18V37.2616C136.947 38.9686 135.202 39.8069 132.914 39.8069C130.838 39.8069 129.093 39.0584 127.618 37.5312C126.144 36.0043 125.421 34.1181 125.421 31.9326C125.421 29.7165 126.144 27.8604 127.618 26.3332C129.093 24.8061 130.838 24.0578 132.914 24.0578C135.202 24.0578 136.947 24.896 138.18 26.573V24.4469ZM133.426 36.723C134.78 36.723 135.924 36.2741 136.826 35.3754C137.729 34.4473 138.18 33.3097 138.18 31.9326C138.18 30.5549 137.729 29.4174 136.826 28.5191C135.924 27.5909 134.78 27.1417 133.426 27.1417C132.072 27.1417 130.928 27.5909 130.025 28.5191C129.123 29.4174 128.671 30.5549 128.671 31.9326C128.671 33.3097 129.123 34.4473 130.025 35.3754C130.928 36.2741 132.072 36.723 133.426 36.723Z" fill="#231F20"/>
<path d="M158.696 30.2257V39.4176H155.446V30.5549C155.446 28.3093 154.152 27.082 152.076 27.082C149.789 27.082 148.254 28.4892 148.254 31.3935V39.4176H145.004V24.4469H148.254V26.3631C149.247 24.8361 150.782 24.0578 152.918 24.0578C156.379 24.0578 158.696 26.3931 158.696 30.2257Z" fill="#231F20"/>
<path d="M173.954 24.4469H177.204V39.4176H173.954V37.2616C172.719 38.9686 170.974 39.8069 168.687 39.8069C166.611 39.8069 164.865 39.0584 163.391 37.5312C161.917 36.0043 161.194 34.1181 161.194 31.9326C161.194 29.7165 161.917 27.8604 163.391 26.3332C164.865 24.8061 166.611 24.0578 168.687 24.0578C170.974 24.0578 172.719 24.896 173.954 26.573V24.4469ZM169.198 36.723C170.553 36.723 171.697 36.2741 172.599 35.3754C173.502 34.4473 173.954 33.3097 173.954 31.9326C173.954 30.5549 173.502 29.4174 172.599 28.5191C171.697 27.5909 170.553 27.1417 169.198 27.1417C167.844 27.1417 166.701 27.5909 165.799 28.5191C164.895 29.4174 164.444 30.5549 164.444 31.9326C164.444 33.3097 164.895 34.4473 165.799 35.3754C166.701 36.2741 167.844 36.723 169.198 36.723Z" fill="#231F20"/>
<path d="M202.213 30.2252V39.4171H198.963V30.5544C198.963 28.309 197.67 27.0815 195.594 27.0815C193.305 27.0815 191.77 28.4887 191.77 31.3931V39.4171H188.522V18.4583H191.77V26.3627C192.764 24.8356 194.298 24.0573 196.435 24.0573C199.895 24.0573 202.213 26.3926 202.213 30.2252Z" fill="#231F20"/>
<path d="M215.767 24.4455H219.016V39.4163H215.767V37.5001C214.774 39.027 213.24 39.8054 211.103 39.8054C207.643 39.8054 205.325 37.4702 205.325 33.6376V24.4455H208.575V33.3084C208.575 35.5538 209.87 36.7816 211.946 36.7816C214.233 36.7816 215.767 35.374 215.767 32.4697V24.4455Z" fill="#231F20"/>
<path d="M236.389 26.3327C237.863 27.8599 238.585 29.7162 238.585 31.9321C238.585 34.1176 237.863 36.0039 236.389 37.5309C234.914 39.058 233.168 39.8064 231.092 39.8064C228.806 39.8064 227.06 38.9681 225.825 37.2611V39.4171H222.575V18.4583H225.825V26.5725C227.06 24.8955 228.806 24.0573 231.092 24.0573C233.168 24.0573 234.914 24.8057 236.389 26.3327ZM230.581 36.7225C231.934 36.7225 233.078 36.2736 233.98 35.3749C234.883 34.4468 235.335 33.3092 235.335 31.9321C235.335 30.5544 234.883 29.4169 233.98 28.5187C233.078 27.5906 231.934 27.1414 230.581 27.1414C229.226 27.1414 228.082 27.5906 227.18 28.5187C226.277 29.4169 225.825 30.5544 225.825 31.9321C225.825 33.3092 226.277 34.4468 227.18 35.3749C228.082 36.2736 229.226 36.7225 230.581 36.7225Z" fill="#231F20"/>
<path d="M61.7732 40.7399C61.7252 40.905 61.6762 41.0696 61.6256 41.2337L61.5768 41.3904C61.5147 41.5877 61.4504 41.784 61.3845 41.9796L61.3394 42.1131C61.2702 42.315 61.199 42.516 61.1259 42.7161L61.0746 42.8557C61.0018 43.0525 60.9268 43.2482 60.8502 43.4432L60.792 43.5897C60.7144 43.7842 60.6352 43.9778 60.5537 44.1703L60.4919 44.3149C60.4128 44.4995 60.3319 44.6833 60.2496 44.866L60.18 45.0186C60.0978 45.1979 60.014 45.3765 59.9285 45.5542L59.8516 45.7132C59.7666 45.8878 59.6798 46.0615 59.5915 46.2341L59.508 46.3967C59.4179 46.5705 59.326 46.7435 59.233 46.9153L59.151 47.0661C59.0543 47.2423 58.9559 47.4173 58.8558 47.5914L58.7655 47.7476C58.6659 47.9188 58.5648 48.0888 58.4622 48.258L58.3685 48.4107C58.2682 48.574 58.1665 48.7363 58.0631 48.8976L57.9571 49.0621C57.8563 49.2173 57.7542 49.3717 57.6507 49.5253L57.5323 49.6996C57.4291 49.8507 57.3243 50.0007 57.2183 50.1499L57.094 50.3242C56.9872 50.4725 56.8792 50.6199 56.7697 50.7664L56.6438 50.9345C56.5327 51.0814 56.4201 51.2272 56.3065 51.3721L56.1737 51.5405C56.0571 51.6872 55.9391 51.8328 55.8199 51.9775L55.6856 52.1393C55.5733 52.2737 55.4597 52.4071 55.3453 52.5396C55.2913 52.6021 55.2372 52.6644 55.1826 52.7263C55.0723 52.8522 54.9608 52.9771 54.8484 53.1013L54.6645 53.3026C54.5542 53.4224 54.4427 53.5412 54.3306 53.6594C54.2671 53.7262 54.2034 53.7928 54.1393 53.8591C54.026 53.9763 53.9117 54.0928 53.7967 54.2082C53.734 54.271 53.6713 54.3334 53.6081 54.3957C53.487 54.5154 53.3648 54.634 53.2417 54.7517L53.08 54.9056C52.9473 55.0305 52.8135 55.1542 52.6789 55.277C52.6143 55.3359 52.5488 55.3945 52.4837 55.4527C52.3633 55.5607 52.2419 55.668 52.1196 55.7742C52.0537 55.8316 51.9873 55.8887 51.9207 55.9455C51.7979 56.0504 51.6743 56.1546 51.5499 56.2575C51.4822 56.3136 51.4141 56.3699 51.3461 56.4254C51.2173 56.5302 51.088 56.6336 50.9576 56.7365C50.8942 56.7867 50.8305 56.8369 50.7664 56.8866C50.6331 56.9902 50.4987 57.0926 50.3635 57.1942C50.2836 57.2541 50.2036 57.3138 50.1232 57.3732C49.9968 57.4664 49.8696 57.5586 49.7417 57.6501C49.6626 57.7065 49.5832 57.7626 49.5036 57.8186C49.373 57.9103 49.2414 58.0009 49.1091 58.0907C49.0269 58.1466 48.9442 58.2019 48.8614 58.2571C48.7215 58.3503 48.581 58.4425 48.4394 58.5334C48.3694 58.5785 48.2989 58.623 48.2283 58.6676C48.0779 58.7627 47.9269 58.8569 47.7748 58.9494C47.7099 58.9891 47.6443 59.0282 47.579 59.0672C47.429 59.1572 47.2782 59.2459 47.1265 59.3334L46.9291 59.4461C46.7742 59.5341 46.6185 59.6208 46.4621 59.7061L46.2727 59.8085C46.1103 59.8955 45.947 59.9811 45.7831 60.0655L45.6071 60.1556C45.4328 60.2439 45.2578 60.3303 45.0819 60.4153L44.9377 60.4851C44.7518 60.5739 44.5646 60.6605 44.3765 60.7458L44.224 60.8148C44.0285 60.9022 43.8319 60.9877 43.6343 61.0714L43.5073 61.1248C43.3065 61.2086 43.1047 61.2908 42.902 61.3707L42.779 61.4185C42.5806 61.4958 42.3812 61.5713 42.181 61.6446L42.0562 61.6898C41.8557 61.7623 41.6542 61.8329 41.4518 61.9016L41.3297 61.9425C41.1252 62.0109 40.9194 62.0774 40.7131 62.1417L40.5939 62.1786C40.3858 62.2426 40.1765 62.3045 39.9666 62.3644L39.8507 62.3974C39.635 62.4579 39.4184 62.5163 39.2009 62.5725L39.1029 62.5979C38.8708 62.657 38.6379 62.7134 38.404 62.7674L38.3586 62.7781C38.1086 62.8354 37.8576 62.89 37.6052 62.9414L37.5814 62.9461C37.3347 62.9962 37.0869 63.0434 36.8382 63.0877L36.7767 63.0984C36.5385 63.1404 36.2994 63.1798 36.0595 63.2167L35.9829 63.2281C35.7472 63.2637 35.5108 63.2967 35.2734 63.3269L35.1898 63.3373C34.9531 63.3671 34.7157 63.394 34.4777 63.4184L34.3956 63.4266C34.1543 63.4507 33.9122 63.4719 33.6692 63.4908L33.5987 63.4962C33.3497 63.5149 33.0996 63.5305 32.849 63.5435L32.7988 63.5461C32.5386 63.5592 32.2774 63.5689 32.0157 63.5758L31.9943 63.5765C31.7233 63.5833 31.4515 63.5866 31.1788 63.5866C30.9063 63.5866 30.6345 63.5833 30.3635 63.5765L30.3418 63.5758C30.0801 63.5691 29.8194 63.5591 29.5593 63.5461L29.5082 63.5435C29.2578 63.5307 29.0083 63.5149 28.7593 63.4962L28.6882 63.4908C28.4454 63.4721 28.2036 63.4506 27.9625 63.4266L27.8796 63.4183C27.6416 63.394 27.4044 63.3669 27.168 63.3373L27.0844 63.3269C26.847 63.2965 26.6106 63.2637 26.3749 63.2281L26.2983 63.2167C26.0591 63.1801 25.8209 63.1408 25.5835 63.0989L25.5184 63.0876C25.2712 63.0434 25.0248 62.9965 24.7795 62.9466L24.7513 62.941C24.4999 62.8897 24.2497 62.8355 24.0007 62.7784L23.951 62.7668C23.7179 62.7131 23.486 62.6567 23.2549 62.5979L23.1567 62.5725C22.9393 62.5163 22.7226 62.4579 22.5071 62.3974L22.391 62.3644C22.1818 62.3048 21.9733 62.2431 21.7657 62.1793L21.6439 62.1414C21.4388 62.0774 21.2344 62.0116 21.0311 61.9436L20.9034 61.9006C20.7023 61.8325 20.5026 61.7623 20.3035 61.6904L20.1765 61.6445C19.9779 61.5718 19.7801 61.4968 19.5834 61.4203L19.4532 61.3696C19.2533 61.2908 19.0544 61.2098 18.8565 61.1271L18.7162 61.0683C18.5214 60.9858 18.3276 60.9014 18.1347 60.8151L17.979 60.7449C17.7927 60.6603 17.6075 60.5744 17.423 60.4864L17.2707 60.4126C17.0966 60.3284 16.9233 60.2432 16.751 60.1559C16.691 60.1255 16.6314 60.0945 16.5715 60.0638C16.4089 59.98 16.2467 59.8951 16.0857 59.8088L15.8925 59.7041C15.7371 59.6193 15.5826 59.5333 15.4288 59.4461L15.2313 59.3334C15.0796 59.2459 14.9288 59.1572 14.7788 59.0672L14.5829 58.9494C14.4317 58.8573 14.2814 58.7638 14.1319 58.6693C14.0568 58.6219 13.982 58.5744 13.9074 58.5264C13.7696 58.4377 13.6326 58.3478 13.4963 58.2571C13.4123 58.2013 13.3287 58.145 13.2453 58.0884C13.1154 58.0001 12.9859 57.9111 12.8575 57.8209C12.7767 57.7643 12.6964 57.7073 12.6161 57.6501C12.4882 57.5586 12.361 57.4663 12.2346 57.3732C12.1527 57.3128 12.0713 57.2521 11.9901 57.1911C11.8578 57.0914 11.7261 56.9913 11.5955 56.8898C11.5295 56.8386 11.4638 56.7867 11.3983 56.735C11.2686 56.6328 11.1398 56.5296 11.0118 56.4254C10.9436 56.3697 10.8756 56.3136 10.8079 56.2575C10.6834 56.1546 10.5598 56.0504 10.437 55.9455C10.3704 55.8887 10.3041 55.8316 10.238 55.7742C10.1158 55.668 9.99456 55.5609 9.874 55.4527C9.80887 55.3945 9.74363 55.3359 9.67884 55.277C9.5441 55.1542 9.41042 55.0305 9.2778 54.9056L9.11598 54.7517C8.99376 54.635 8.87261 54.517 8.75228 54.3984C8.68834 54.3352 8.62462 54.272 8.56115 54.2082C8.44602 54.0928 8.33184 53.9763 8.21849 53.8591C8.15443 53.7928 8.0906 53.7262 8.02712 53.6594C7.91496 53.5412 7.80372 53.4224 7.69334 53.3026L7.50929 53.1013C7.39842 52.9787 7.28838 52.8555 7.17939 52.7312L7.01026 52.5371C6.89678 52.4057 6.78438 52.2736 6.67314 52.1403L6.53343 51.9721C6.41583 51.8293 6.29951 51.6856 6.1844 51.5408C6.1383 51.4829 6.09255 51.4247 6.04692 51.3666C5.93841 51.2281 5.83097 51.0887 5.72471 50.9484C5.67707 50.8856 5.6298 50.8224 5.58264 50.7594C5.47732 50.6181 5.3732 50.4758 5.27013 50.3329L5.13313 50.141C5.0317 49.9981 4.93137 49.8542 4.83231 49.7095L4.70004 49.5145C4.60099 49.3675 4.50313 49.2194 4.40644 49.0708L4.28789 48.8868C4.1886 48.7316 4.09072 48.5755 3.99415 48.4186L3.89167 48.2514C3.79179 48.087 3.69369 47.9214 3.59677 47.755L3.49784 47.584C3.40056 47.4146 3.30481 47.2441 3.21061 47.0727L3.1203 46.9069C3.03094 46.7418 2.94288 46.5759 2.85637 46.4092L2.76145 46.2244C2.67635 46.0577 2.59266 45.8901 2.51039 45.7218L2.42376 45.5427C2.34196 45.3724 2.26171 45.2014 2.18286 45.0294L2.10308 44.8542C2.02294 44.6764 1.94445 44.4979 1.8675 44.3185L1.80132 44.1634C1.72094 43.9731 1.64245 43.7817 1.56574 43.5897L1.50759 43.4432C1.431 43.2487 1.35629 43.0533 1.28348 42.8569L1.22958 42.7097C1.15736 42.5116 1.0868 42.3129 1.01836 42.1131L0.973327 41.9796C0.907371 41.784 0.843307 41.5877 0.781016 41.3904L0.732201 41.2337C0.681375 41.0698 0.632558 40.9049 0.584451 40.7399C0.214249 39.3465 0.93704 37.8736 2.29114 37.3412C9.18181 34.6327 19.5646 32.9086 31.1788 32.9086C42.7933 32.9086 53.176 34.6327 60.0666 37.3412C61.4208 37.8736 62.1436 39.3465 61.7732 40.7399ZM0.584333 23.0462C0.632913 22.8798 0.681965 22.7134 0.733264 22.548L0.779599 22.3997C0.842717 22.1996 0.907608 22.0006 0.974509 21.8023L1.01742 21.6752C1.0868 21.4723 1.15843 21.2705 1.23183 21.0695L1.28147 20.9341C1.35535 20.7347 1.43123 20.5363 1.50889 20.3389L1.56421 20.1995C1.6421 20.0043 1.72189 19.8096 1.80367 19.6163L1.86408 19.4749C1.94315 19.2906 2.02365 19.107 2.10604 18.9245L2.18051 18.761C2.26005 18.5876 2.34114 18.4148 2.42376 18.2428L2.50945 18.0657C2.59266 17.8951 2.67754 17.7252 2.76382 17.5562L2.85247 17.3837C2.94088 17.2134 3.03071 17.0439 3.12208 16.8753L3.21048 16.713C3.30469 16.5415 3.40044 16.3711 3.49784 16.2015L3.59677 16.0305C3.6944 15.8626 3.79345 15.6958 3.89404 15.5301L3.99108 15.3716C4.08895 15.2126 4.18824 15.0543 4.28882 14.8971L4.40644 14.7148C4.50371 14.565 4.60217 14.4161 4.70194 14.2681L4.83231 14.0761C4.93219 13.9303 5.03337 13.7851 5.13561 13.6409L5.26835 13.4551C5.37236 13.3108 5.47732 13.1673 5.5837 13.0248L5.71738 12.8466C5.82708 12.7016 5.93818 12.5576 6.05036 12.4145L6.18415 12.245C6.30047 12.0985 6.41807 11.9533 6.5371 11.809L6.67243 11.6461C6.78627 11.5099 6.90116 11.3747 7.01723 11.2403L7.17408 11.0602C7.28731 10.9312 7.40149 10.8031 7.51674 10.676L7.68683 10.4898C7.80137 10.3652 7.91708 10.2418 8.03363 10.1191L8.21175 9.93327C8.32771 9.81331 8.44437 9.69429 8.56211 9.57622C8.62521 9.51294 8.68868 9.44991 8.75228 9.38711C8.87261 9.26844 8.99376 9.15047 9.11598 9.0337L9.2778 8.87987C9.41029 8.75497 9.5441 8.63125 9.67884 8.50847C9.7435 8.44954 9.80874 8.39109 9.874 8.33263C9.99467 8.22467 10.1158 8.11741 10.238 8.01122C10.3038 7.95418 10.3697 7.89725 10.4359 7.84069C10.5608 7.73402 10.6866 7.62829 10.8131 7.52351C10.8776 7.47011 10.9422 7.41684 11.0072 7.36392C11.1371 7.25794 11.268 7.15328 11.3997 7.04932C11.4646 6.99815 11.5294 6.94689 11.5946 6.89619C11.728 6.79269 11.8624 6.69061 11.9973 6.58913C12.0714 6.53349 12.1457 6.47775 12.2203 6.42271C12.3522 6.32533 12.4849 6.22925 12.6184 6.13386C12.6978 6.07706 12.7774 6.02061 12.8575 5.9645C12.9859 5.87443 13.1154 5.78527 13.2453 5.69706C13.3287 5.64038 13.4123 5.58416 13.4963 5.5283C13.6327 5.43763 13.7696 5.34766 13.9074 5.25899C13.982 5.21101 14.0568 5.16348 14.1319 5.11609C14.2814 5.02165 14.4317 4.92805 14.5829 4.83595C14.6475 4.79667 14.7125 4.75786 14.7773 4.71905C14.9299 4.62767 15.0832 4.53747 15.2373 4.44855L15.422 4.34294C15.5785 4.25427 15.7358 4.16677 15.8938 4.08057L16.0857 3.9766C16.2467 3.89028 16.4088 3.80537 16.5715 3.72163C16.6314 3.69081 16.691 3.65988 16.751 3.62954C16.9233 3.54228 17.0966 3.45701 17.2707 3.37281L17.423 3.29895C17.6073 3.21086 17.7927 3.125 17.979 3.04057L18.1347 2.97024C18.3276 2.88403 18.5214 2.7997 18.7162 2.71714L18.8565 2.65834C19.0544 2.57567 19.2533 2.49452 19.4532 2.41572L19.5834 2.36516C19.7801 2.28859 19.9779 2.21367 20.1765 2.14088L20.3035 2.09501C20.5024 2.02304 20.7023 1.95282 20.9034 1.88473L21.0311 1.8418C21.2344 1.77395 21.4388 1.70796 21.6439 1.64399L21.7657 1.60612C21.9733 1.54237 22.1818 1.48075 22.391 1.421L22.5071 1.38796C22.7226 1.32727 22.9393 1.26905 23.1567 1.21296L23.2549 1.18755C23.4858 1.12863 23.7179 1.0723 23.951 1.01855L24.0007 1.00691C24.2497 0.949752 24.4999 0.895652 24.7513 0.844377L24.7795 0.838732C25.0248 0.788866 25.2712 0.742059 25.5184 0.697838L25.5835 0.686548C25.8209 0.64468 26.0593 0.605399 26.2983 0.568706L26.3749 0.557297C26.6106 0.521781 26.847 0.48885 27.0844 0.458508L27.168 0.448041C27.4044 0.418522 27.6416 0.39159 27.8796 0.367127L27.9625 0.358778C28.2036 0.334786 28.4454 0.313382 28.6882 0.294682L28.7593 0.289154C29.0083 0.270572 29.2578 0.25493 29.5082 0.241994L29.5593 0.23929C29.8194 0.226353 30.0801 0.216356 30.3418 0.209653L30.3635 0.208947C30.6344 0.202243 30.9063 0.198715 31.1788 0.198715C31.4515 0.198715 31.7233 0.202007 31.9943 0.208947L32.0157 0.209653C32.2774 0.216356 32.5384 0.226235 32.7988 0.23929L32.849 0.241994C33.0996 0.25493 33.3495 0.270572 33.5987 0.289154L33.6692 0.294682C33.9122 0.313382 34.1543 0.334669 34.3956 0.358778L34.4777 0.367011C34.7157 0.391355 34.9531 0.418404 35.1898 0.448041L35.2734 0.458508C35.5107 0.488734 35.7472 0.521781 35.9829 0.557297L36.0595 0.568706C36.2994 0.605517 36.5385 0.645033 36.7767 0.687019L36.8382 0.697603C37.0869 0.741941 37.3347 0.789219 37.5814 0.839319L37.6052 0.844024C37.8576 0.895418 38.1086 0.94987 38.3586 1.00726L38.404 1.01796C38.6381 1.07195 38.8708 1.12852 39.1029 1.18755L39.2009 1.21296C39.4184 1.26905 39.635 1.32739 39.8507 1.38796L39.9666 1.421C40.1765 1.48098 40.3858 1.54273 40.5939 1.6067L40.7131 1.64363C40.9194 1.70796 41.1252 1.77441 41.3297 1.84285L41.4518 1.88378C41.6542 1.95247 41.8557 2.02315 42.0562 2.09572L42.181 2.14076C42.3814 2.21402 42.5806 2.28965 42.779 2.36691L42.902 2.41467C43.1048 2.49452 43.3065 2.57672 43.5073 2.66069L43.6343 2.71397C43.8319 2.79758 44.0285 2.8831 44.224 2.9706L44.3765 3.03962C44.5646 3.12489 44.7518 3.21157 44.9377 3.30036L45.0819 3.37011C45.2578 3.45524 45.4328 3.54158 45.6071 3.62978L45.7831 3.71999C45.947 3.8043 46.1103 3.88992 46.2727 3.97696L46.4607 4.0788C46.6199 4.16559 46.7783 4.25357 46.9356 4.34294L47.1204 4.44855C47.2746 4.53747 47.428 4.62767 47.5805 4.71905C47.6453 4.75786 47.7102 4.79667 47.7748 4.83595C47.9269 4.92862 48.0779 5.02272 48.2283 5.11773C48.2989 5.16232 48.3694 5.20689 48.4394 5.25194C48.581 5.34296 48.7215 5.43516 48.8614 5.5283C48.9442 5.58346 49.0269 5.63886 49.1091 5.69472C49.2413 5.78445 49.373 5.87525 49.5036 5.96686C49.5824 6.02213 49.6611 6.07788 49.7394 6.13386C49.8728 6.22925 50.0057 6.32533 50.1375 6.42271C50.2107 6.47668 50.2836 6.53126 50.3565 6.58594C50.494 6.68944 50.6311 6.79363 50.7671 6.89925C50.8305 6.94853 50.8933 6.99815 50.9563 7.04791C51.0885 7.15234 51.2201 7.25748 51.3507 7.36392L51.5446 7.52351C51.6712 7.62829 51.797 7.73402 51.9219 7.84069C51.988 7.89725 52.0541 7.95418 52.1196 8.01122C52.2418 8.11754 52.3633 8.22467 52.4837 8.33263C52.549 8.39097 52.6141 8.44954 52.6789 8.50847C52.8137 8.63112 52.9475 8.75485 53.08 8.87987L53.2417 9.0337C53.3648 9.15142 53.487 9.27008 53.6081 9.38968C53.6709 9.45166 53.7336 9.51376 53.7957 9.57622C53.9134 9.69429 54.0301 9.81331 54.146 9.93327C54.2055 9.99501 54.265 10.0569 54.3242 10.1191C54.4407 10.2418 54.5565 10.3652 54.6709 10.4898L54.841 10.676C54.9577 10.8046 55.0731 10.9342 55.1877 11.0648L55.3386 11.238C55.4556 11.3734 55.5717 11.5098 55.6864 11.6473L55.8165 11.8037C55.9368 11.9499 56.056 12.0972 56.174 12.2454L56.3032 12.4091C56.4206 12.5587 56.537 12.7094 56.6515 12.8612L56.7686 13.0174C56.8789 13.1651 56.9879 13.3138 57.0955 13.4635L57.2162 13.6322C57.3229 13.7827 57.4282 13.9338 57.5323 14.086L57.6488 14.2577C57.7529 14.412 57.8556 14.5673 57.9571 14.7235L58.0623 14.8865C58.1668 15.0499 58.27 15.2142 58.3716 15.3795L58.4597 15.5236C58.5633 15.694 58.6651 15.8655 58.7655 16.0379L58.8558 16.1942C58.9559 16.3684 59.0543 16.5433 59.151 16.7196L59.2312 16.867C59.3264 17.0425 59.4202 17.2191 59.5121 17.3967L59.5891 17.5465C59.6785 17.7214 59.7663 17.8974 59.8524 18.0741L59.9285 18.2313C60.0148 18.4107 60.0993 18.5908 60.1823 18.772L60.2463 18.9123C60.3311 19.1001 60.4141 19.2889 60.4953 19.4786L60.5514 19.6098C60.634 19.8054 60.7146 20.002 60.7935 20.1995L60.8489 20.3389C60.9268 20.5368 61.0028 20.7355 61.0767 20.9354L61.1237 21.0634C61.1979 21.2664 61.2702 21.4702 61.3404 21.6752L61.3833 21.8023C61.45 22.0006 61.5151 22.1996 61.5781 22.3997L61.6245 22.548C61.6757 22.7134 61.7249 22.8798 61.7734 23.0462C62.1431 24.4395 61.4205 25.9121 60.0666 26.4441C53.176 29.1527 42.7933 30.8769 31.1788 30.8769C19.5646 30.8769 9.18181 29.1527 2.29114 26.4441C0.937277 25.9121 0.214723 24.4395 0.584333 23.0462Z" fill="#E7E8E9"/>
<path d="M57.8886 36.5557C55.6681 49.2324 44.5552 58.8703 31.1789 58.8703C17.8026 58.8703 6.68973 49.2324 4.46924 36.5557C11.2785 34.3033 20.7301 32.9078 31.1789 32.9078C41.6279 32.9078 51.0793 34.3033 57.8886 36.5557ZM4.46935 27.2281C6.68985 14.5512 17.8026 4.91346 31.1789 4.91346C44.5552 4.91346 55.6681 14.5512 57.8886 27.2281C51.0793 29.4804 41.6279 30.8761 31.1789 30.8761C20.7301 30.8761 11.2786 29.4804 4.46935 27.2281Z" fill="#B9BBBD"/>
<path d="M53.2992 35.2627C51.6662 45.9581 42.3846 54.1542 31.1789 54.1542C19.9735 54.1542 10.6919 45.9581 9.05884 35.2627C15.2638 33.7815 22.9091 32.907 31.1789 32.907C39.449 32.907 47.094 33.7815 53.2992 35.2627ZM9.05895 28.5195C10.692 17.824 19.9735 9.6282 31.1789 9.6282C42.3846 9.6282 51.666 17.824 53.299 28.5195C47.094 30.0009 39.449 30.8752 31.1789 30.8752C22.9091 30.8752 15.264 30.0009 9.05895 28.5195Z" fill="#8E9092"/>
<path d="M48.6467 34.3161C47.4607 42.8605 40.0927 49.441 31.1788 49.441C22.2651 49.441 14.8971 42.8605 13.7109 34.3161C18.9293 33.4178 24.8724 32.9095 31.1788 32.9095C37.4854 32.9095 43.4283 33.4178 48.6467 34.3161ZM13.7109 29.471C14.8971 20.9265 22.2651 14.3462 31.1788 14.3462C40.0927 14.3462 47.4607 20.9265 48.6467 29.471C43.4283 30.3693 37.4854 30.8777 31.1788 30.8777C24.8724 30.8777 18.9293 30.3693 13.7109 29.471Z" fill="#656668"/>
<path d="M43.9565 33.6381C43.1007 39.8992 37.7068 44.7248 31.179 44.7248C24.6515 44.7248 19.2576 39.8992 18.4016 33.6381C22.3904 33.1663 26.6926 32.9088 31.179 32.9088C35.6655 32.9088 39.9679 33.1663 43.9565 33.6381ZM18.4016 30.1476C19.2576 23.8863 24.6516 19.0608 31.179 19.0608C37.7067 19.0608 43.1007 23.8863 43.9565 30.1476C39.9679 30.6194 35.6655 30.877 31.179 30.877C26.6926 30.877 22.3904 30.6194 18.4016 30.1476Z" fill="#231F20"/>
</svg>
